<mxfile host="65bd71144e">
    <diagram id="GInHtZuMB5CcCfA9ihm7" name="Page-1">
        <mxGraphModel dx="1074" dy="741" grid="1" gridSize="10" guides="1" tooltips="1" connect="1" arrows="1" fold="1" page="1" pageScale="1" pageWidth="850" pageHeight="1100" math="0" shadow="0">
            <root>
                <mxCell id="0"/>
                <mxCell id="1" parent="0"/>
                <mxCell id="7" style="edgeStyle=none;html=1;" parent="1" source="2" target="10" edge="1">
                    <mxGeometry relative="1" as="geometry">
                        <mxPoint x="255.4545454545455" y="250" as="targetPoint"/>
                    </mxGeometry>
                </mxCell>
                <mxCell id="2" value="Start" style="strokeWidth=2;html=1;shape=mxgraph.flowchart.terminator;whiteSpace=wrap;" parent="1" vertex="1">
                    <mxGeometry x="250" y="150" width="100" height="60" as="geometry"/>
                </mxCell>
                <mxCell id="6" value="Stop" style="strokeWidth=2;html=1;shape=mxgraph.flowchart.terminator;whiteSpace=wrap;" parent="1" vertex="1">
                    <mxGeometry x="700" y="510" width="100" height="60" as="geometry"/>
                </mxCell>
                <mxCell id="10" value="&lt;div&gt;getWeather(&quot;https://api.openweathermap.org/data/2.5/weather?&lt;/div&gt;&lt;div&gt;lat-45.4211435&amp;amp;lon=-75.6900574&amp;amp;appid=fe1d80e1e103cff8c6afd190cad23fa5&quot;)&lt;/div&gt;" style="rounded=1;whiteSpace=wrap;html=1;absoluteArcSize=1;arcSize=14;strokeWidth=2;" vertex="1" parent="1">
                    <mxGeometry x="70" y="240" width="460" height="100" as="geometry"/>
                </mxCell>
                <mxCell id="11" value="&lt;div&gt;const result await&lt;/div&gt;&lt;div&gt;fetch(URLAddress)=&amp;gt;&lt;/div&gt;" style="rounded=1;whiteSpace=wrap;html=1;absoluteArcSize=1;arcSize=14;strokeWidth=2;" vertex="1" parent="1">
                    <mxGeometry x="235" y="360" width="130" height="90" as="geometry"/>
                </mxCell>
                <mxCell id="12" style="edgeStyle=none;html=1;exitX=0.5;exitY=1;exitDx=0;exitDy=0;entryX=0.5;entryY=0;entryDx=0;entryDy=0;" edge="1" parent="1" source="10" target="11">
                    <mxGeometry relative="1" as="geometry">
                        <mxPoint x="350" y="360" as="sourcePoint"/>
                        <mxPoint x="350" y="390" as="targetPoint"/>
                    </mxGeometry>
                </mxCell>
                <mxCell id="14" value="Try" style="strokeWidth=2;html=1;shape=mxgraph.flowchart.decision;whiteSpace=wrap;" vertex="1" parent="1">
                    <mxGeometry x="130" y="460" width="60" height="60" as="geometry"/>
                </mxCell>
                <mxCell id="16" value="yes" style="text;html=1;align=center;verticalAlign=middle;resizable=0;points=[];autosize=1;strokeColor=none;fillColor=none;" vertex="1" parent="1">
                    <mxGeometry x="100" y="510" width="30" height="20" as="geometry"/>
                </mxCell>
                <mxCell id="17" value="Exception" style="text;html=1;align=center;verticalAlign=middle;resizable=0;points=[];autosize=1;strokeColor=none;fillColor=none;" vertex="1" parent="1">
                    <mxGeometry x="180" y="510" width="70" height="20" as="geometry"/>
                </mxCell>
                <mxCell id="18" style="edgeStyle=none;html=1;exitX=1;exitY=0.5;exitDx=0;exitDy=0;exitPerimeter=0;" edge="1" parent="1" source="14" target="22">
                    <mxGeometry relative="1" as="geometry">
                        <mxPoint x="290" y="520" as="sourcePoint"/>
                        <mxPoint x="220" y="490" as="targetPoint"/>
                    </mxGeometry>
                </mxCell>
                <mxCell id="22" value="&quot;Error fetching current weather.&quot;" style="shape=parallelogram;html=1;strokeWidth=2;perimeter=parallelogramPerimeter;whiteSpace=wrap;rounded=1;arcSize=12;size=0.23;" vertex="1" parent="1">
                    <mxGeometry x="250" y="460" width="260" height="60" as="geometry"/>
                </mxCell>
                <mxCell id="25" value="" style="edgeStyle=segmentEdgeStyle;endArrow=classic;html=1;exitX=0.5;exitY=0;exitDx=0;exitDy=0;exitPerimeter=0;entryX=0;entryY=0.5;entryDx=0;entryDy=0;" edge="1" parent="1" source="14" target="11">
                    <mxGeometry width="50" height="50" relative="1" as="geometry">
                        <mxPoint x="90" y="460" as="sourcePoint"/>
                        <mxPoint x="210" y="430" as="targetPoint"/>
                        <Array as="points">
                            <mxPoint x="160" y="405"/>
                        </Array>
                    </mxGeometry>
                </mxCell>
                <mxCell id="26" value="&lt;div&gt;const result await&lt;/div&gt;&lt;div&gt;fetch(URLAddress)&lt;/div&gt;" style="rounded=1;whiteSpace=wrap;html=1;absoluteArcSize=1;arcSize=14;strokeWidth=2;" vertex="1" parent="1">
                    <mxGeometry x="90" y="560" width="140" height="100" as="geometry"/>
                </mxCell>
                <mxCell id="27" style="edgeStyle=none;html=1;exitX=0.5;exitY=1;exitDx=0;exitDy=0;exitPerimeter=0;entryX=0.5;entryY=0;entryDx=0;entryDy=0;" edge="1" parent="1" source="14" target="26">
                    <mxGeometry relative="1" as="geometry">
                        <mxPoint x="70" y="460" as="sourcePoint"/>
                        <mxPoint x="70" y="490" as="targetPoint"/>
                    </mxGeometry>
                </mxCell>
                <mxCell id="28" value="&lt;div&gt;const jsonData = await&lt;/div&gt;&lt;div&gt;result.json()&lt;/div&gt;" style="rounded=1;whiteSpace=wrap;html=1;absoluteArcSize=1;arcSize=14;strokeWidth=2;" vertex="1" parent="1">
                    <mxGeometry x="90" y="720" width="140" height="100" as="geometry"/>
                </mxCell>
                <mxCell id="29" value="&lt;div&gt;const temperature=&lt;/div&gt;&lt;div&gt;jsonData.main.temp-&lt;/div&gt;&lt;div&gt;273.15&lt;/div&gt;&lt;div&gt;&lt;br&gt;&lt;/div&gt;" style="rounded=1;whiteSpace=wrap;html=1;absoluteArcSize=1;arcSize=14;strokeWidth=2;" vertex="1" parent="1">
                    <mxGeometry x="260" y="720" width="140" height="100" as="geometry"/>
                </mxCell>
                <mxCell id="30" style="edgeStyle=none;html=1;exitX=0.5;exitY=1;exitDx=0;exitDy=0;entryX=0.5;entryY=0;entryDx=0;entryDy=0;" edge="1" parent="1" source="26" target="28">
                    <mxGeometry relative="1" as="geometry">
                        <mxPoint x="340" y="630" as="sourcePoint"/>
                        <mxPoint x="340" y="670" as="targetPoint"/>
                    </mxGeometry>
                </mxCell>
                <mxCell id="32" style="edgeStyle=none;html=1;exitX=1;exitY=0.5;exitDx=0;exitDy=0;entryX=0;entryY=0.5;entryDx=0;entryDy=0;" edge="1" parent="1" source="28" target="29">
                    <mxGeometry relative="1" as="geometry">
                        <mxPoint x="300" y="640" as="sourcePoint"/>
                        <mxPoint x="300" y="680" as="targetPoint"/>
                    </mxGeometry>
                </mxCell>
                <mxCell id="33" value="&lt;div&gt;&lt;div&gt;const description =&lt;/div&gt;&lt;div&gt;jsonData.weather[0].description&lt;/div&gt;&lt;/div&gt;&lt;div&gt;&lt;br&gt;&lt;/div&gt;" style="rounded=1;whiteSpace=wrap;html=1;absoluteArcSize=1;arcSize=14;strokeWidth=2;" vertex="1" parent="1">
                    <mxGeometry x="640" y="710" width="180" height="120" as="geometry"/>
                </mxCell>
                <mxCell id="35" value="&lt;div&gt;const symbol =&lt;/div&gt;&lt;div&gt;jsonData.weather[0].icon&lt;/div&gt;" style="rounded=1;whiteSpace=wrap;html=1;absoluteArcSize=1;arcSize=14;strokeWidth=2;" vertex="1" parent="1">
                    <mxGeometry x="450" y="720" width="140" height="100" as="geometry"/>
                </mxCell>
                <mxCell id="36" style="edgeStyle=none;html=1;exitX=1;exitY=0.5;exitDx=0;exitDy=0;entryX=0;entryY=0.5;entryDx=0;entryDy=0;" edge="1" parent="1" source="29" target="35">
                    <mxGeometry relative="1" as="geometry">
                        <mxPoint x="420" y="740" as="sourcePoint"/>
                        <mxPoint x="460" y="740" as="targetPoint"/>
                    </mxGeometry>
                </mxCell>
                <mxCell id="38" style="edgeStyle=none;html=1;exitX=1;exitY=0.5;exitDx=0;exitDy=0;entryX=0;entryY=0.5;entryDx=0;entryDy=0;" edge="1" parent="1" source="35" target="33">
                    <mxGeometry relative="1" as="geometry">
                        <mxPoint x="680" y="630" as="sourcePoint"/>
                        <mxPoint x="720" y="630" as="targetPoint"/>
                    </mxGeometry>
                </mxCell>
                <mxCell id="39" value="&lt;div&gt;&quot;The current weather is &quot; + temperature.toFixed(0) +&lt;/div&gt;&lt;div&gt;&quot;C&quot; + &quot;&amp;lt;img src=&quot;https://openweathermap.org/img/wn/&quot;&lt;/div&gt;&lt;div&gt;+ symbol + &quot;@2x.png' alt=Weather Icon' width='15%&amp;gt;&quot;&lt;/div&gt;&lt;div&gt;+ &quot;with &quot; + description&lt;/div&gt;" style="shape=parallelogram;html=1;strokeWidth=2;perimeter=parallelogramPerimeter;whiteSpace=wrap;rounded=1;arcSize=12;size=0.23;" vertex="1" parent="1">
                    <mxGeometry x="250" y="530" width="415" height="140" as="geometry"/>
                </mxCell>
                <mxCell id="43" value="" style="edgeStyle=segmentEdgeStyle;endArrow=classic;html=1;exitX=1;exitY=0.5;exitDx=0;exitDy=0;entryX=0.5;entryY=0;entryDx=0;entryDy=0;entryPerimeter=0;" edge="1" parent="1" source="22" target="6">
                    <mxGeometry width="50" height="50" relative="1" as="geometry">
                        <mxPoint x="600" y="450" as="sourcePoint"/>
                        <mxPoint x="730" y="490" as="targetPoint"/>
                        <Array as="points">
                            <mxPoint x="500" y="490"/>
                            <mxPoint x="500" y="470"/>
                            <mxPoint x="750" y="470"/>
                        </Array>
                    </mxGeometry>
                </mxCell>
                <mxCell id="44" value="" style="edgeStyle=segmentEdgeStyle;endArrow=classic;html=1;entryX=0.5;entryY=1;entryDx=0;entryDy=0;entryPerimeter=0;exitX=1;exitY=0.75;exitDx=0;exitDy=0;" edge="1" parent="1" source="39" target="6">
                    <mxGeometry width="50" height="50" relative="1" as="geometry">
                        <mxPoint x="650" y="630" as="sourcePoint"/>
                        <mxPoint x="739.9000000000001" y="650" as="targetPoint"/>
                        <Array as="points">
                            <mxPoint x="601" y="630"/>
                            <mxPoint x="750" y="630"/>
                        </Array>
                    </mxGeometry>
                </mxCell>
                <mxCell id="46" value="" style="edgeStyle=segmentEdgeStyle;endArrow=classic;html=1;entryX=0.5;entryY=0;entryDx=0;entryDy=0;exitX=0.458;exitY=0.995;exitDx=0;exitDy=0;exitPerimeter=0;" edge="1" parent="1" source="39" target="33">
                    <mxGeometry width="50" height="50" relative="1" as="geometry">
                        <mxPoint x="440" y="680" as="sourcePoint"/>
                        <mxPoint x="749.9000000000001" y="700" as="targetPoint"/>
                        <Array as="points">
                            <mxPoint x="440" y="690"/>
                            <mxPoint x="730" y="690"/>
                        </Array>
                    </mxGeometry>
                </mxCell>
            </root>
        </mxGraphModel>
    </diagram>
</mxfile>